#!OML:ASF F:\VICON\USERDATA\INSTALL\rory3\rory3.ASF
:FULLY-SPECIFIED
:DEGREES
4576
root -3.60003 16.8951 -5.01636 6.63913 26.0894 2.42649
lowerback 10.6686 -3.92794 -3.74983
upperback 0.556438 -5.57024 1.65852
thorax -4.85787 -2.6479 4.63616
lowerneck -17.9448 -9.2495 -13.6091
upperneck 18.0958 -11.8085 12.1708
head 10.3184 -5.146 4.75831
rclavicle 3.37934e-014 -1.8487e-014
rhumerus -3.76084 5.97043 -75.3228
rradius 133.525
rwrist 15.0569
rhand -16.6331 29.8186
rfingers 7.12502
rthumb 9.58934 0.0568544
lclavicle 3.37934e-014 -1.8487e-014
lhumerus 2.1146 -23.4046 88.2947
lradius 128.41
lwrist -10.9602
lhand -4.71622 3.60315
lfingers 7.12502
lthumb 21.066 32.4789
rfemur -31.3884 -1.55475 6.72829
rtibia 51.0932
rfoot -17.2074 1.86837
rtoes -4.72977
lfemur -4.95976 -7.97197 -4.24263
ltibia 38.4618
lfoot -11.6108 -9.50965
ltoes -41.8083
4577
root -3.57962 16.9307 -5.01701 6.66898 25.7159 2.46442
lowerback 10.7498 -4.01911 -3.46971
upperback 0.55879 -5.65847 1.67625
thorax -4.91676 -2.69515 4.51758
lowerneck -18.0955 -9.27209 -13.4745
upperneck 18.1614 -11.8314 12.029
head 10.3535 -5.15554 4.6775
rclavicle -1.68967e-015 1.51076e-014
rhumerus -4.02223 6.07987 -75.8873
rradius 133.58
rwrist 14.9991
rhand -16.0844 29.7637
rfingers 7.12502
rthumb 10.1187 0.0269814
lclavicle -1.68967e-015 1.51076e-014
lhumerus 1.97334 -23.1365 88.3177
lradius 128.279
lwrist -11.1904
lhand -4.50824 3.77873
lfingers 7.12502
lthumb 21.2658 32.6321
rfemur -31.054 -1.57886 6.69678
rtibia 50.2719
rfoot -16.8768 1.96295
rtoes -4.35752
lfemur -5.0214 -7.64312 -4.34231
ltibia 38.6401
lfoot -11.0419 -9.88383
ltoes -40.1864
4578
root -3.55098 16.9755 -5.02038 6.70663 25.0276 2.40262
lowerback 10.7927 -4.01844 -3.15687
upperback 0.720161 -5.61257 1.7635
thorax -4.79635 -2.6842 4.42338
lowerneck -19.0402 -9.36361 -13.3002
upperneck 18.4656 -11.8554 11.7648
head 10.6096 -5.14305 4.52663
rclavicle 3.03147e-014 -3.97569e-016
rhumerus -4.05901 6.18606 -76.2792
rradius 133.745
rwrist 15.1052
rhand -15.7482 29.6765
rfingers 7.12502
rthumb 10.443 -0.0441005
lclavicle 3.03147e-014 -3.97569e-016
lhumerus 2.34601 -22.7137 88.1918
lradius 128.092
lwrist -11.4374
lhand -3.86565 4.13786
lfingers 7.12502
lthumb 21.883 32.9204
rfemur -30.8629 -1.31474 6.7107
rtibia 49.3649
rfoot -16.3813 1.97354
rtoes -3.81305
lfemur -4.9987 -7.1389 -4.49931
ltibia 38.7881
lfoot -10.6489 -10.0769
ltoes -38.7625
4579
root -3.51807 17.0253 -5.02754 6.75228 24.211 2.39321
lowerback 10.8478 -3.99451 -2.92008
upperback 0.849427 -5.54577 1.86079
thorax -4.70995 -2.6593 4.38214
lowerneck -19.7799 -9.41046 -13.3217
upperneck 18.6749 -11.8217 11.6891
head 10.8134 -5.10725 4.4915
rclavicle -2.44505e-014 -5.96354e-015
rhumerus -4.09661 6.39342 -76.5784
rradius 133.829
rwrist 15.2165
rhand -15.6782 29.5272
rfingers 7.12502
rthumb 10.5106 -0.190018
lclavicle -2.44505e-014 -5.96354e-015
lhumerus 2.58675 -22.2067 88.1495
lradius 128.018
lwrist -11.6295
lhand -3.22568 4.17382
lfingers 7.12502
lthumb 22.4974 32.8833
rfemur -30.7064 -0.879009 6.60532
rtibia 48.4488
rfoot -15.7495 2.02888
rtoes -3.13697
lfemur -4.88394 -6.65507 -4.79871
ltibia 38.9075
lfoot -10.6535 -10.1773
ltoes -38.507
4580
root -3.47817 17.079 -5.04377 6.80227 23.43 2.45716
lowerback 10.8589 -3.9867 -2.67717
upperback 1.05848 -5.49947 1.93039
thorax -4.51667 -2.64854 4.30253
lowerneck -20.4841 -9.44442 -13.2217
upperneck 18.7232 -11.7796 11.5564
head 10.9384 -5.06852 4.41624
rclavicle -1.30999e-013 3.97569e-015
rhumerus -3.93636 6.54775 -76.825
rradius 133.874
rwrist 15.0768
rhand -15.6641 29.4501
rfingers 7.12502
rthumb 10.5242 -0.26639
lclavicle -1.30999e-013 3.97569e-015
lhumerus 3.1067 -21.843 87.9505
lradius 127.852
lwrist -11.5953
lhand -3.26186 4.17329
lfingers 7.12502
lthumb 22.4626 32.887
rfemur -30.5289 -0.497806 6.37102
rtibia 47.5736
rfoot -14.9792 2.11369
rtoes -2.41845
lfemur -4.74477 -6.28193 -5.23259
ltibia 39.0096
lfoot -10.8402 -10.3292
ltoes -38.4581
4581
root -3.4294 17.1348 -5.06879 7.02258 22.534 2.69578
lowerback 10.7952 -3.98861 -2.58403
upperback 1.11916 -5.48712 1.97145
thorax -4.42343 -2.64733 4.2828
lowerneck -20.7617 -9.34678 -13.1247
upperneck 18.721 -11.6018 11.4255
head 10.9476 -4.9854 4.3786
rclavicle -7.78242e-014 -4.77083e-015
rhumerus -4.02191 6.79527 -77.0717
rradius 133.953
rwrist 14.8184
rhand -15.5845 29.4878
rfingers 7.12502
rthumb 10.601 -0.224856
lclavicle -7.78242e-014 -4.77083e-015
lhumerus 3.39387 -21.4378 87.816
lradius 127.628
lwrist -11.6134
lhand -3.51874 4.28647
lfingers 7.12502
lthumb 22.216 33.0297
rfemur -30.5866 -0.1363 5.88766
rtibia 46.7732
rfoot -13.9974 2.22059
rtoes -1.48749
lfemur -4.72938 -5.81739 -5.92225
ltibia 39.114
lfoot -11.0521 -10.6911
ltoes -38.0984
4582
root -3.3718 17.1952 -5.10024 7.352 21.4765 3.04446
lowerback 11.5678 -4.05182 -2.57726
upperback 0.38582 -5.58731 2.02579
thorax -5.61214 -2.65107 4.46393
lowerneck -20.1817 -8.98617 -13.1052
upperneck 19.0658 -11.1256 11.1022
head 10.8759 -4.8233 4.3646
rclavicle -4.6615e-014 1.59028e-015
rhumerus -5.21168 7.63928 -77.3758
rradius 134.113
rwrist 14.3928
rhand -15.3871 29.4384
rfingers 7.12502
rthumb 10.7914 -0.26442
lclavicle -4.6615e-014 1.59028e-015
lhumerus 2.0325 -20.7978 88.2195
lradius 127.703
lwrist -11.6778
lhand -3.65433 4.4874
lfingers 7.12502
lthumb 22.0859 33.2461
rfemur -30.8717 0.203774 5.22682
rtibia 46.0288
rfoot -12.7616 2.28863
rtoes -1.09793
lfemur -4.79392 -5.28466 -6.83763
ltibia 39.2364
lfoot -11.2273 -10.9636
ltoes -37.5647
4583
root -3.30811 17.2555 -5.13561 7.60428 20.2535 3.34897
lowerback 11.8045 -3.98683 -2.68355
upperback 0.16004 -5.51396 2.15174
thorax -5.96775 -2.59618 4.68068
lowerneck -19.9147 -8.78223 -13.2035
upperneck 19.0462 -10.8009 10.952
head 10.7702 -4.70971 4.39053
rclavicle -5.66536e-014 2.46493e-014
rhumerus -5.49203 8.26883 -77.3427
rradius 134.093
rwrist 13.9472
rhand -15.3455 29.2753
rfingers 7.12502
rthumb 10.8315 -0.425372
lclavicle -5.66536e-014 2.46493e-014
lhumerus 1.42163 -20.3674 88.419
lradius 127.768
lwrist -11.3904
lhand -4.23859 4.58003
lfingers 7.12502
lthumb 21.5248 33.404
rfemur -31.2106 0.638885 4.56814
rtibia 45.3187
rfoot -11.3238 2.3417
rtoes -0.480321
lfemur -4.78331 -4.67316 -7.80632
ltibia 39.3753
lfoot -11.4623 -10.7582
ltoes -36.6457
4584
root -3.24327 17.3166 -5.17321 7.81999 18.8786 3.55258
lowerback 11.6341 -3.79571 -2.68623
upperback 0.29532 -5.25244 2.21678
thorax -5.74709 -2.47603 4.68801
lowerneck -20.0109 -8.70117 -13.1281
upperneck 18.9417 -10.6562 10.8321
head 10.7173 -4.64896 4.35638
rclavicle 3.95581e-014 -1.59028e-015
rhumerus -5.24788 8.45945 -77.244
rradius 133.965
rwrist 13.6623
rhand -15.4192 29.1652
rfingers 7.12502
rthumb 10.7605 -0.539207
lclavicle 3.95581e-014 -1.59028e-015
lhumerus 1.45682 -20.23 88.3128
lradius 127.792
lwrist -11.0541
lhand -4.80311 4.59369
lfingers 7.12502
lthumb 20.9826 33.4787
rfemur -31.661 1.26694 3.99499
rtibia 44.6206
rfoot -9.84838 2.23258
rtoes 0.49713
lfemur -4.76579 -3.99132 -8.73193
ltibia 39.4909
lfoot -11.7809 -10.3291
ltoes -35.2332
4585
root -3.17486 17.3795 -5.21668 7.99832 17.574 3.78066
lowerback 11.4691 -3.66421 -2.54893
upperback 0.513685 -5.05724 2.18268
thorax -5.45734 -2.39584 4.5197
lowerneck -20.1486 -8.58511 -12.9161
upperneck 18.7554 -10.4886 10.6971
head 10.6306 -4.56865 4.29669
rclavicle 9.323e-014 -1.43125e-014
rhumerus -4.82445 8.53039 -77.2362
rradius 133.76
rwrist 13.5444
rhand -15.5091 29.116
rfingers 7.12502
rthumb 10.6737 -0.592903
lclavicle 9.323e-014 -1.43125e-014
lhumerus 1.63682 -20.0624 87.9942
lradius 127.864
lwrist -10.6747
lhand -4.94439 4.65864
lfingers 7.12502
lthumb 20.8468 33.5586
rfemur -32.1091 1.76667 3.39677
rtibia 43.9482
rfoot -8.31943 2.02025
rtoes 1.67168
lfemur -4.74988 -3.5076 -9.71295
ltibia 39.5716
lfoot -12.0239 -10.1443
ltoes -34.007
4586
root -3.10011 17.4437 -5.26544 8.12275 16.338 4.06031
lowerback 11.5471 -3.59331 -2.44257
upperback 0.688826 -4.94815 2.19203
thorax -5.33395 -2.35007 4.45093
lowerneck -20.4158 -8.45747 -12.8778
upperneck 18.6426 -10.2602 10.6367
head 10.6021 -4.46022 4.30162
rclavicle 3.22031e-014 -2.94201e-014
rhumerus -4.44617 8.75406 -77.1681
rradius 133.534
rwrist 13.5227
rhand -15.658 29.1563
rfingers 7.12502
rthumb 10.5301 -0.559917
lclavicle 3.22031e-014 -2.94201e-014
lhumerus 1.80839 -19.7197 87.7151
lradius 127.897
lwrist -10.126
lhand -4.83876 4.70789
lfingers 7.12502
lthumb 20.9483 33.5967
rfemur -32.5186 2.17565 2.73138
rtibia 43.3033
rfoot -6.73395 1.7019
rtoes 2.9277
lfemur -4.72532 -3.16312 -10.7912
ltibia 39.6198
lfoot -12.2637 -9.94956
ltoes -33.7144
4587
root -3.02152 17.4973 -5.31781 8.35749 15.024 4.4383
lowerback 11.6454 -3.4792 -2.52189
upperback 0.76217 -4.80547 2.23497
thorax -5.31378 -2.2789 4.52379
lowerneck -20.6345 -8.34503 -12.9043
upperneck 18.6245 -10.0421 10.5536
head 10.6028 -4.36487 4.30941
rclavicle -1.74931e-014 9.54166e-015
rhumerus -4.12217 9.05606 -77.0092
rradius 133.271
rwrist 13.5595
rhand -15.764 29.0616
rfingers 7.12502
rthumb 10.4278 -0.659782
lclavicle -1.74931e-014 9.54166e-015
lhumerus 1.82738 -19.3774 87.4852
lradius 127.981
lwrist -9.74686
lhand -4.75689 4.77006
lfingers 7.12502
lthumb 21.027 33.6501
rfemur -33.0855 2.4779 1.97648
rtibia 42.7054
rfoot -5.15952 1.29409
rtoes 3.48861
lfemur -4.78248 -2.82631 -11.9927
ltibia 39.59
lfoot -12.3739 -9.65108
ltoes -32.8258
4588
root -2.94237 17.5401 -5.37403 8.62739 13.7193 4.70962
lowerback 11.7317 -3.36789 -2.48537
upperback 0.780457 -4.65233 2.26525
thorax -5.35692 -2.20287 4.51872
lowerneck -20.7673 -8.19801 -12.7954
upperneck 18.6388 -9.81722 10.4084
head 10.5874 -4.26649 4.27599
rclavicle -4.6118e-014 -2.38542e-014
rhumerus -3.71481 9.27779 -76.907
rradius 132.984
rwrist 13.5747
rhand -15.5346 28.8092
rfingers 7.12502
rthumb 10.6491 -0.900997
lclavicle -4.6118e-014 -2.38542e-014
lhumerus 1.69961 -19.1263 87.2465
lradius 128.137
lwrist -9.56044
lhand -4.91622 4.98196
lfingers 7.12502
lthumb 20.8739 33.879
rfemur -33.7495 2.59082 1.40668
rtibia 42.153
rfoot -3.57811 0.762617
rtoes 4.47293
lfemur -4.93626 -2.54968 -13.065
ltibia 39.4582
lfoot -12.3219 -9.29735
ltoes -32.2642
4589
root -2.86541 17.5844 -5.42525 8.76509 12.4364 4.79819
lowerback 11.912 -3.26416 -2.34344
upperback 0.809592 -4.49344 2.33998
thorax -5.44592 -2.1247 4.5068
lowerneck -20.8574 -8.00042 -12.6247
upperneck 18.6355 -9.53791 10.2329
head 10.5463 -4.14385 4.23153
rclavicle 2.0276e-014 2.94201e-014
rhumerus -3.26205 9.45197 -76.7925
rradius 132.56
rwrist 13.669
rhand -15.4593 28.8454
rfingers 7.12502
rthumb 10.7217 -0.860995
lclavicle 2.0276e-014 2.94201e-014
lhumerus 1.4699 -18.8342 87.0097
lradius 128.358
lwrist -9.35005
lhand -4.94109 5.29603
lfingers 7.12502
lthumb 20.85 34.1957
rfemur -34.373 2.82482 1.07904
rtibia 41.6707
rfoot -2.33728 -0.029948
rtoes 4.38388
lfemur -4.99075 -2.29223 -13.8917
ltibia 39.1874
lfoot -11.9213 -9.24132
ltoes -31.1618
4590
root -2.79162 17.6226 -5.46968 8.87871 11.1288 4.86367
lowerback 12.0464 -3.14285 -2.32
upperback 0.828569 -4.32575 2.4283
thorax -5.51071 -2.04015 4.57072
lowerneck -20.728 -7.73923 -12.3525
upperneck 18.4868 -9.20629 10.01
head 10.3991 -4.0026 4.16407
rclavicle 5.1684e-015 -1.11319e-014
rhumerus -2.92153 9.6686 -76.7013
rradius 132.046
rwrist 13.9381
rhand -15.9361 29.0602
rfingers 7.12502
rthumb 10.2618 -0.669502
lclavicle 5.1684e-015 -1.11319e-014
lhumerus 1.1906 -18.4707 86.7459
lradius 128.544
lwrist -9.03718
lhand -4.60789 5.53506
lfingers 7.12502
lthumb 21.1701 34.3992
rfemur -35.0231 3.27936 0.777181
rtibia 41.2879
rfoot -1.60613 -1.06457
rtoes 3.61463
lfemur -4.98187 -2.02173 -14.6441
ltibia 38.7839
lfoot -11.3983 -9.47095
ltoes -29.8057
